<svg width="200" height="200" viewBox="0 0 200 200" fill="none" xmlns="http://www.w3.org/2000/svg">
<path d="M190 56.5752C189.979 74.3896 182.874 91.466 170.248 104.048L170.246 104.046L125.455 148.681C123.903 150.228 121.381 150.232 119.927 148.593C109.037 136.322 102.985 120.451 103.005 103.962C103.026 86.1473 110.131 69.0708 122.757 56.4889L122.758 56.4904L163.681 15.7113C167.369 12.0357 173.405 12.0094 176.533 16.1714C185.24 27.756 190.017 41.9216 190 56.5752Z" fill="white"/>
<path d="M29.7521 104.32C17.1259 91.738 10.0209 74.6615 10 56.8472C9.98288 42.1935 14.7602 28.028 23.4671 16.4434C26.5953 12.2813 32.6306 12.3077 36.3191 15.9833L77.242 56.7626L77.2432 56.7614C89.8694 69.3433 96.9744 86.4197 96.9953 104.234C97.0146 120.723 90.9631 136.594 80.0732 148.865C78.6188 150.504 76.0972 150.5 74.5452 148.953L29.7534 104.319L29.7521 104.32Z" fill="white"/>
<path d="M168.562 184.187C165.272 188.223 159.253 188.188 155.572 184.503L130.295 159.196C128.744 157.644 128.747 155.127 130.302 153.578L172.284 111.743C173.836 110.197 176.367 110.188 177.736 111.898C185.022 121.003 187.887 133.586 185.721 147.44C183.739 160.12 177.675 173.01 168.562 184.187Z" fill="white"/>
<path d="M44.4284 184.775C40.7479 188.459 34.7289 188.495 31.4382 184.459C22.3258 173.282 16.2616 160.392 14.2791 147.711C12.1131 133.858 14.9781 121.275 22.2645 112.17C23.6335 110.459 26.1647 110.468 27.7167 112.015L69.6987 153.85C71.2533 155.399 71.2563 157.915 69.7053 159.468L44.4284 184.775Z" fill="white"/>
</svg>
